<svg width="207" height="33" viewBox="0 0 207 33" fill="none" xmlns="http://www.w3.org/2000/svg">
<g id="Group 21">
<g id="Group 20">
<g id="Group">
<g id="Group_2">
<g id="Group_3">
<path id="Vector" d="M1.92283 32.4649C1.69362 32.4649 1.45444 32.3812 1.2053 32.2098C0.976084 32.0623 0.766803 31.8809 0.57546 31.6677C0.404049 31.4604 0.252569 31.2332 0.121021 30.982C0.0831506 30.8704 0.0492671 30.7628 0.0173766 30.6552C-0.0105273 30.5495 -0.00454823 30.4598 0.0333218 30.3841L2.57659 18.6803L9.56858 23.0174L8.82712 26.3579H14.4797L15.3647 22.2759L3.60506 14.0562L6.49114 0.805664H25.7052C25.9483 0.805664 26.1855 0.883397 26.4147 1.03687C26.6419 1.18636 26.8532 1.36773 27.0446 1.57901C27.214 1.7863 27.3655 2.01551 27.499 2.26465C27.5787 2.50981 27.6066 2.7171 27.5867 2.88652L25.1869 13.825L18.195 9.48785L18.7371 6.91269H13.1722L12.5105 9.9104L24.2462 18.1621L21.1368 32.4649H1.92283Z" fill="black"/>
</g>
</g>
</g>
<g id="Group_4">
<g id="Group_5">
<g id="Group_6">
<path id="Vector_2" d="M20.0042 32.4649L25.9756 5.23047L22.6032 0.805664H46.7603C46.9875 0.805664 47.2247 0.883397 47.4698 1.03687C47.5854 1.13254 47.6951 1.22423 47.7967 1.30794C47.9023 1.39364 48.004 1.49131 48.0997 1.60293C48.291 1.79427 48.4425 2.02348 48.5541 2.28857C48.6697 2.50184 48.7096 2.70115 48.6737 2.88652L45.955 15.1962L42.0484 17.1974L45.102 19.1347L42.6464 30.3841C42.6245 30.5396 42.4989 30.7389 42.2717 30.982C42.1601 31.1156 42.0445 31.2411 41.9289 31.3567C41.8172 31.4684 41.6837 31.572 41.5302 31.6677C41.3807 31.7853 41.2352 31.8869 41.0917 31.9706C40.9482 32.0563 40.7987 32.146 40.6453 32.2417C40.3044 32.3912 40.0314 32.4649 39.8241 32.4649H20.0042ZM39.7922 6.91269H33.5656L32.3378 12.5972L30.0815 14.0562L31.1658 17.9069L29.3162 26.3579H35.5667L37.0257 19.6769L33.8526 21.2475L32.0269 14.7976L38.9312 10.8272L39.7922 6.91269Z" fill="#1791C8"/>
</g>
</g>
</g>
</g>
<g id="Group 19">
<g id="Group_7">
<g id="Group_8">
<g id="Group_9">
<path id="Vector_3" d="M62.0115 25.6395L60.9877 25.4567L60.0127 25.1032L59.5008 24.957L59.0255 24.7254L58.6842 24.3598L57.8067 23.7991L57.4777 23.4335L57.1242 23.1044L56.6489 22.1782L56.5026 21.7272L56.4051 21.2275L56.3198 20.7278L56.527 20.1916L56.978 19.9966L58.9036 19.8991L59.3789 19.9722L59.8299 19.9234L60.3296 20.1184L61.1584 21.0203L61.5849 21.3007L62.0115 21.52L63.2912 21.6541L63.7422 21.5688L64.5222 21.52L65.3753 21.1422L65.6922 20.7766L65.8994 20.1428L65.741 19.5212L65.4241 19.2165L64.5222 18.79L60.5855 18.339L59.6836 18.0465L57.9774 17.1081L57.0511 15.9624L56.6489 15.0849L56.4783 14.0855L56.4539 13.3055L56.527 12.0745L56.978 10.6973L57.8555 9.5151L59.0499 8.69852L59.903 8.19882L60.8537 7.89413L61.3046 7.821L61.8165 7.79662L62.3649 7.63818L64.2906 7.68693L65.2656 7.89413L66.6672 8.36945L68.3248 9.5151L68.8732 10.2707L69.5801 11.5748L69.6288 12.0501L69.7263 12.5255L69.5313 12.952L69.056 13.3055L68.6051 13.2567H68.1054L67.4229 13.208L66.2528 13.3055L65.6922 12.9764L65.3144 12.4767L64.9 12.1233L64.4369 11.8308L63.9859 11.6967L63.1937 11.5992L62.3893 11.6236L61.9384 11.7211L61.5362 11.9526L61.1584 12.233L60.8537 12.5498L60.7318 13.2324L60.8293 13.9758L61.2071 14.3293L62.1334 14.7802L63.4618 15.0605H64.1931L64.7172 15.158L65.2169 15.1824L65.7166 15.2555L67.6788 15.8649L68.1298 16.133L68.5319 16.3402L68.9829 16.7424L69.6288 17.4859L69.9092 17.8881L70.287 19.3384L70.3357 20.1428L70.1773 21.3982L70.031 21.8247L69.8848 22.2757L69.6045 22.8241L69.3485 23.1776L68.6295 23.9332L66.9232 24.957L66.4478 25.1764L65.9969 25.2373L65.4972 25.4323L64.9975 25.5054L64.4978 25.6395L63.9859 25.6882L62.0115 25.6395Z" fill="black"/>
</g>
</g>
</g>
<g id="Group_10">
<g id="Group_11">
<g id="Group_12">
<path id="Vector_4" d="M80.4855 25.6639H80.0102L79.5593 25.5543L79.023 25.5055L78.4989 25.3349L78.1211 25.2374L77.6214 25.0546L75.9151 24.1283L75.5495 23.8236L75.1229 23.5555L74.221 22.6779L73.2095 21.2276L73.0388 20.801L72.7829 20.3501L72.7098 19.8991L72.5148 19.4238L72.2588 18.4366V17.4372L72.1613 16.6328L72.6123 13.5006L73.7701 11.2458L74.0626 10.8193L74.7451 10.1977L75.0376 9.79549L76.7927 8.67422L77.2436 8.4914L77.6214 8.27202L78.0968 8.08921L79.0718 7.8942L79.5593 7.74795L79.9737 7.68701H82.265L83.5081 7.86983L84.4953 8.13796L85.9213 8.7961L86.4697 9.17392L87.7738 10.3439L88.7001 11.6237L89.1023 12.5743L89.1754 13.0252L89.3704 13.5249L89.2242 14.0612L88.822 14.2806L88.3223 14.3293L85.7872 14.2806L85.2388 14.0612L84.7878 13.5859L84.5684 13.1593L84.1906 12.7571L83.4594 12.1477L82.9353 11.9771L81.9846 11.8065L80.4246 11.7455L79.5593 12.0015L79.0718 12.1965L78.2552 12.8059L77.6214 13.5859L77.1949 14.4878L77.0486 14.9387L77.0242 15.4384L76.8414 15.8894L76.817 16.6938L76.9024 17.8638L77.1949 18.8388L77.402 19.2654L78.3283 20.472L78.6574 20.8254L79.1327 21.0448L80.4855 21.5445L81.8871 21.5689L82.4112 21.5201L82.9109 21.3739L83.7641 20.9473L84.7147 19.9235L84.9219 19.4969L85.4216 19.0216L85.97 18.7657L88.6513 18.7901L89.2729 19.0704L89.4314 19.5213L89.346 19.9966L89.1754 20.4963L89.0535 20.9717L88.822 21.4226L88.0785 22.7267L87.6519 23.0558L87.3716 23.4823L87.0426 23.7992L86.616 24.1039L86.165 24.3842L85.7872 24.628L84.41 25.2374L81.9846 25.7371L80.4855 25.6639Z" fill="black"/>
</g>
</g>
</g>
<g id="Group_13">
<g id="Group_14">
<g id="Group_15">
<path id="Vector_5" d="M92.3052 24.6038L92.2321 22.6538L92.2809 22.1297L92.1833 20.6672L92.2565 19.6434L92.1833 19.095L92.2077 18.1443L92.2565 17.6202V16.3649L92.1833 15.6336L92.2565 8.61349L92.4637 8.08942L92.939 7.87004L93.4874 7.89442L93.9628 7.82129L94.9865 7.91879L95.4619 7.84566L96.9731 7.89442L97.3997 7.84566L97.9482 7.89442L98.4479 7.84566L98.9963 7.87004L99.7276 7.84566L100.349 7.89442L102.433 8.32099L103.311 8.77193L104.566 9.72258L104.785 10.1004L105.139 10.4782L105.809 11.8554L105.943 12.3551L106.016 12.8305L106.138 13.3058L106.114 15.2802L105.846 16.243L105.663 16.6574L105.395 17.1084L105.212 17.5959L104.907 18.0102L104.213 18.6928L103.932 19.2168L104.005 19.8262L104.761 21.1181L105.09 21.5203L105.334 21.9713L105.639 22.4222L105.87 22.8488L106.662 24.0797L106.991 24.7013L106.894 25.2376L106.37 25.3595L105.809 25.4082H104.81L104.31 25.3595L103.762 25.4082L102.86 25.3595L102.226 25.2132L101.726 24.7623L101.434 24.3601L101.202 23.9335L100.873 23.4582L100.179 22.2028L100.008 21.7275L99.3497 20.85L98.9476 20.4234L98.326 20.2162L97.875 20.2406H97.4241L96.9244 20.4965L96.6928 20.9962L96.7416 22.5563L96.6684 23.6288L96.7659 24.1529L96.7172 24.6769L96.5466 25.1523L95.7665 25.4082H95.0109L94.4868 25.3595L93.4631 25.4326L92.9877 25.4082L92.488 25.1523L92.3052 24.6038ZM97.4241 16.1821H97.9725L98.4722 16.2674L100.422 16.0846L100.8 15.914L101.105 15.6093L101.385 15.1827L101.58 14.683L101.653 14.0127L101.604 13.2814L101.434 12.8792L101.178 12.5014L100.398 12.0261L99.2522 11.8798L97.875 11.8554L97.4728 11.8798L96.9731 12.1236L96.6684 12.6233L96.7416 15.4386L96.9975 15.9627L97.4241 16.1821Z" fill="black"/>
</g>
</g>
</g>
<g id="Group_16">
<g id="Group_17">
<g id="Group_18">
<path id="Vector_6" d="M108.075 24.7254L108.367 23.6773L108.599 23.1776L108.903 22.7754L109.622 20.9472L110.329 19.6431L110.5 19.1434L110.732 18.7412L110.878 18.2172L111.231 17.559L111.402 17.0837L111.78 16.4377L112.182 15.5358L112.462 15.0849L112.584 14.6583L113.986 11.5017L114.266 11.0508L115.339 8.79602L115.485 8.34507L115.96 7.89413L116.765 7.63818L117.618 7.86975L118.069 8.34507L118.215 8.8204L118.446 9.19822L118.849 10.1489L119.348 11.0751L119.726 11.9526L119.848 12.3548L120.299 13.3055L120.445 13.7808L120.957 14.6583L121.079 15.1336L121.323 15.5602L121.53 15.9868L121.798 16.4377L121.956 16.9374L122.176 17.3153L122.359 17.815L122.578 18.2415L122.785 18.7412L123.053 19.1434L123.407 20.0697L123.663 20.4963L123.833 20.9716L124.26 21.8735L124.406 22.3488L124.662 22.7266L124.808 23.2263L125.137 23.6529L125.308 24.1038L125.467 24.7254L125.357 25.2617L124.906 25.4079L123.358 25.4567L122.481 25.3835L122.03 25.4323L121.371 25.1764L120.957 24.7863L120.677 24.3354L120.555 23.8845L120.019 23.4823L119.202 23.2019L118.02 23.2507L117.496 23.2019H117.045L116.46 23.2751L115.936 23.2019L114.534 23.2263L114.034 23.1776L113.437 23.4335L113.011 23.9088L112.584 24.762L112.133 25.2129L111.56 25.4567L110.902 25.3835H108.696L108.197 25.2617L108.075 24.7254ZM115.814 19.2165L117.764 19.1922L118.19 18.9972L118.239 18.5462L118.069 18.0953L117.825 17.5956L117.715 17.1934L117.447 16.7668L117.118 15.7796L116.813 15.5846L116.496 15.8405L116.265 16.2427L115.265 18.5218L115.339 19.0215L115.814 19.2165Z" fill="black"/>
</g>
</g>
</g>
<g id="Group_19">
<g id="Group_20">
<g id="Group_21">
<path id="Vector_7" d="M127.791 24.6278L127.767 24.1525L127.84 23.6772L127.742 23.2019L127.864 22.7022L127.791 21.1178L127.864 20.1184L127.791 19.643V18.5949L127.84 18.1196L127.767 17.3639L127.864 16.6936L127.791 15.6576L127.84 15.1092L127.791 14.6582L127.84 14.1585V11.5991L127.767 11.075V10.5997L127.84 10.1488V9.12501L127.889 8.58874L128.145 8.11342L128.815 7.89404L136.31 7.91842L136.761 8.01592L137.261 8.22311L137.785 8.32061L138.699 8.79594L139.443 9.29563L139.869 9.67345L140.149 10.0513L140.466 10.3925L140.795 10.8191L141.295 11.721L141.746 13.6832L141.722 15.1579L141.673 15.6089L141.454 16.6327L141.271 17.0836L141.051 17.5346L140.247 18.7411L139.491 19.4724L139.089 19.7649L138.236 20.3012L136.786 20.7277L135.762 20.9227L134.458 20.9471L133.702 20.874L133.154 20.9471L132.483 21.2031L132.301 21.6296V22.1537L132.349 22.7022L132.276 23.1531L132.325 23.6284L132.301 24.6278L132.081 25.1519L131.581 25.4322H131.045L130.497 25.3835L129.022 25.4078L128.522 25.3591L127.998 25.1519L127.791 24.6278ZM133.105 16.8642L133.678 16.913L135.737 16.7911L136.14 16.5595L136.542 16.2914L137.115 15.5845L137.395 14.4267L137.163 13.2567L136.92 12.8301L136.517 12.4523L136.14 12.1719L135.713 11.9526L133.702 11.8551L133.081 11.9038L132.581 12.0988L132.276 12.6473L132.325 16.133L132.63 16.6327L133.105 16.8642Z" fill="black"/>
</g>
</g>
</g>
<g id="Group_22">
<g id="Group_23">
<g id="Group_24">
<path id="Vector_8" d="M144.231 24.6765L144.329 24.1768L144.353 23.6771L144.304 22.7021V22.2024L144.256 21.6296L144.329 21.1786L144.304 20.6911L144.353 20.1427L144.28 19.6186L144.329 18.6192L144.256 17.6442L144.329 17.1079V12.6228L144.28 12.1719L144.329 11.6478L144.231 10.3681L144.329 9.649L144.28 8.64961L144.536 8.08897L145.255 7.91834L148.546 7.84521L148.997 7.89397L149.972 7.86959L150.471 7.91834L151.568 7.86959L152.08 7.94272L152.531 7.89397L154.53 7.91834L155.054 8.13772L155.31 8.64961L155.237 9.12493L155.212 9.67338L155.286 10.1487L155.334 11.1725L155.054 11.6234L154.53 11.9037L149.716 11.9281L148.948 12.1475L148.692 12.8788L148.741 13.6588L149.045 14.1097L149.472 14.3778L151.446 14.3535L152.019 14.4022H152.555L153.055 14.3535L154.055 14.3778L154.481 14.6582L154.701 15.1335L154.761 15.6332L154.701 17.6198L154.457 18.0951L153.957 18.3632L153.506 18.3876L152.982 18.3389L152.3 18.3876L150.971 18.3145L150.471 18.3632H149.496L149.045 18.6436L148.814 19.1676L148.789 20.3986L149.021 21.1786L149.545 21.4711L150.094 21.4224L150.642 21.4711L151.117 21.398L154.432 21.4467L155.188 21.7027L155.505 22.2024L155.456 22.6777L155.481 24.2256L155.432 24.7009L155.212 25.1762L154.676 25.4321L154.201 25.4809L152.677 25.3834L151.142 25.4565L150.691 25.3834L145.036 25.4321L144.56 25.1518L144.231 24.6765Z" fill="black"/>
</g>
</g>
</g>
<g id="Group_25">
<g id="Group_26">
<g id="Group_27">
<path id="Vector_9" d="M158.615 24.6526L158.59 23.702L158.688 22.2029L158.615 21.1791L158.663 19.1194L158.615 18.6441V17.6447L158.663 17.1694L158.59 16.6331V14.6343L158.639 14.159L158.615 13.6349L158.663 13.1596L158.615 12.6233L158.688 12.0993L158.59 10.4295L158.639 9.69828L158.59 8.61357L158.822 8.0895L159.321 7.87012L166.866 7.91887L168.267 8.24794L169.193 8.74764L169.937 9.27171L170.29 9.62515L170.9 10.4295L171.046 10.9049L171.29 11.3802L171.57 12.3065L171.594 13.0255L171.241 14.8293L170.949 15.2559L170.668 15.7556L170.571 16.2675L170.79 16.8159L171.168 17.1937L171.521 17.6203L171.972 18.4978L172.143 19.0219L172.253 19.4972L172.216 21.496L172.021 21.9957L171.924 22.4223L171.692 22.8976L171.119 23.7264L170.717 24.1042L170.388 24.3601L169.437 24.9086L168.608 25.2377L167.658 25.3595L159.37 25.457L158.895 25.2377L158.615 24.6526ZM163.758 14.6587H165.635L166.488 14.4881L166.914 14.0859L167.036 13.3302L166.963 12.6477L166.634 12.3065L166.329 12.0993L165.562 11.953L163.758 11.8799L163.221 12.148L162.953 12.5746L163.002 13.0499V13.5252L162.905 13.9518L163.148 14.4637L163.758 14.6587ZM163.672 21.4229L165.635 21.4473L166.988 21.3254L167.438 21.0451L167.768 20.6916L167.816 20.0457L167.768 19.3388L167.39 18.9975L167.012 18.7172L166.305 18.5953H163.648L163.148 18.8391L162.978 19.29L162.953 19.7897L163.002 20.2772L162.978 20.6916L163.246 21.2279L163.672 21.4229Z" fill="black"/>
</g>
</g>
</g>
<g id="Group_28">
<g id="Group_29">
<g id="Group_30">
<path id="Vector_10" d="M182.698 25.7125L182.174 25.6637L181.272 25.4566L180.723 25.4078L179.992 25.1519L178.042 24.1525L177.213 23.5065L176.933 23.1774L176.555 22.824L176.226 22.4218L175.934 22.1293L174.776 19.8502L174.556 18.8874L174.508 18.412L174.374 17.9611L174.3 17.437L174.374 15.4139L174.8 13.476L175.178 12.5254L175.958 11.1969L177.189 9.77092L178.042 9.14935L178.493 8.91778L178.859 8.64965L180.748 7.94276L183.405 7.56494L184.075 7.58932L185.525 7.84526L187.463 8.44246L187.829 8.72278L188.585 9.03966L189.157 9.44185L189.889 10.0756L190.595 10.8434L191.144 11.5991L191.619 12.5254L192.241 14.4023L192.424 15.4382L192.497 16.6936L192.399 17.4126L192.375 17.9367L192.241 18.4364L192.216 18.8874L192.021 19.8502L191.644 20.8008L190.535 22.4706L190.193 22.824L189.864 23.275L189.157 23.8843L188.682 24.1037L188.304 24.4084L187.488 24.8594L185.599 25.4809L184.099 25.6881L182.698 25.7125ZM184.099 21.2762L184.599 21.1787L184.977 20.9958L185.428 20.874L186.634 20.0452L186.988 19.643L187.134 19.2652L187.402 18.8142L187.585 18.3633L187.78 17.437L187.829 15.9136L187.756 15.4626L187.536 14.9873L187.232 14.0366L186.257 13.0007L185.477 12.4522L185.026 12.2572L184.575 12.1475L183.368 12.0013L182.673 12.05L181.698 12.306L181.369 12.4279L180.114 13.281L179.517 14.0854L179.358 14.5363L179.163 14.9873L179.09 15.4626L178.968 15.9136V17.437L179.163 18.3633L179.395 18.8142L179.517 19.2164L179.87 19.6918L180.187 20.0452L180.87 20.5936L181.272 20.8252L182.174 21.203L182.722 21.2762H184.099Z" fill="black"/>
</g>
</g>
</g>
<g id="Group_31">
<g id="Group_32">
<g id="Group_33">
<path id="Vector_11" d="M198.237 24.6282L198.213 22.6782L198.261 22.1785L198.188 20.6428L198.213 20.1187L198.188 19.619L198.286 18.8634L198.213 18.1443V17.1449L198.261 16.633L198.213 16.1577L198.286 15.3899L198.213 12.6233L197.957 12.1479L197.506 11.8798L195.275 11.8554L194.63 11.9286L194.13 11.6726L193.849 11.1242L193.874 8.61349L194.13 8.1138L194.678 7.87004L202.137 7.91879L202.722 7.84566H203.222L203.722 7.89442H204.221L204.77 7.82129H205.245L205.647 7.87004L206.257 7.82129L206.756 8.06504L207 8.56474L206.951 10.6245L207 11.1485L206.756 11.6482L206.183 11.8798L204.794 11.8554L204.343 11.9042L203.843 11.8798L203.417 11.9042L202.868 12.1236L202.673 12.5745L202.722 13.1351L202.649 13.6348L202.747 18.6196L202.673 19.6678L202.722 20.1187L202.673 21.6544L202.588 22.1785L202.673 22.605L202.698 23.6044L202.649 24.1772L202.673 24.6526L202.466 25.1523L201.967 25.3595H200.419L199.943 25.4082L199.431 25.3595L198.956 25.4082L198.432 25.1523L198.237 24.6282Z" fill="black"/>
</g>
</g>
</g>
</g>
</g>
</svg>
