<svg width="49" height="49" viewBox="0 0 49 49" fill="none" xmlns="http://www.w3.org/2000/svg">
<g id="mingcute:menu-line" clip-path="url(#clip0_39_20)">
<g id="Group">
<path id="Vector" d="M40.8333 36.7498C41.3537 36.7504 41.8542 36.9497 42.2326 37.3069C42.611 37.6641 42.8387 38.1524 42.8692 38.6719C42.8997 39.1913 42.7307 39.7029 42.3967 40.1019C42.0627 40.501 41.5889 40.7574 41.0722 40.8189L40.8333 40.8332H8.16667C7.64629 40.8326 7.14577 40.6333 6.76737 40.2761C6.38898 39.9189 6.16127 39.4306 6.13077 38.9112C6.10028 38.3917 6.26929 37.8801 6.60329 37.4811C6.93729 37.082 7.41105 36.8256 7.92779 36.7641L8.16667 36.7498H40.8333ZM40.8333 22.4582C41.3748 22.4582 41.8941 22.6733 42.277 23.0562C42.6599 23.439 42.875 23.9584 42.875 24.4998C42.875 25.0413 42.6599 25.5606 42.277 25.9435C41.8941 26.3264 41.3748 26.5415 40.8333 26.5415H8.16667C7.62518 26.5415 7.10588 26.3264 6.72299 25.9435C6.3401 25.5606 6.125 25.0413 6.125 24.4998C6.125 23.9584 6.3401 23.439 6.72299 23.0562C7.10588 22.6733 7.62518 22.4582 8.16667 22.4582H40.8333ZM40.8333 8.1665C41.3748 8.1665 41.8941 8.38161 42.277 8.76449C42.6599 9.14738 42.875 9.66669 42.875 10.2082C42.875 10.7497 42.6599 11.269 42.277 11.6518C41.8941 12.0347 41.3748 12.2498 40.8333 12.2498H8.16667C7.62518 12.2498 7.10588 12.0347 6.72299 11.6518C6.3401 11.269 6.125 10.7497 6.125 10.2082C6.125 9.66669 6.3401 9.14738 6.72299 8.76449C7.10588 8.38161 7.62518 8.1665 8.16667 8.1665H40.8333Z" fill="#4B86FE"/>
</g>
</g>
<defs>
<clipPath id="clip0_39_20">
<rect width="49" height="49" fill="white"/>
</clipPath>
</defs>
</svg>
